<svg width="28" height="30" viewBox="0 0 28 30" fill="none" xmlns="http://www.w3.org/2000/svg">
<path d="M27 6.572C22.19 6.11 17.3511 5.872 12.5267 5.872C9.66667 5.872 6.80667 6.012 3.94667 6.292L1 6.572M8.94444 5.158L9.26222 3.324C9.49333 1.994 9.66667 1 12.1078 1H15.8922C18.3333 1 18.5211 2.05 18.7378 3.338L19.0556 5.158M23.8944 10.996L22.9556 25.094C22.7967 27.292 22.6667 29 18.6367 29H9.36333C5.33333 29 5.20333 27.292 5.04444 25.094L4.10556 10.996M11.5878 21.3H16.3978M10.3889 15.7H17.6111" stroke="#E33535" stroke-linecap="round" stroke-linejoin="round"/>
</svg>
