<svg width="21" height="27" viewBox="0 0 21 27" fill="none" xmlns="http://www.w3.org/2000/svg">
<path d="M1 0H14.5L21 6.5V25.5C21 26.0523 20.5523 26.5 20 26.5H1C0.447715 26.5 0 26.0523 0 25.5V1C0 0.447715 0.447715 0 1 0Z" fill="#E2574C"/>
<path d="M14.5 4.5V0L21 6.5H16.5C15.3954 6.5 14.5 5.60457 14.5 4.5Z" fill="#B53629"/>
<path d="M4.414 17V12.572H6.244C6.384 12.572 6.526 12.59 6.67 12.626C6.814 12.658 6.946 12.724 7.066 12.824C7.19 12.924 7.288 13.072 7.36 13.268C7.436 13.464 7.474 13.726 7.474 14.054C7.474 14.382 7.436 14.646 7.36 14.846C7.284 15.046 7.184 15.2 7.06 15.308C6.94 15.412 6.808 15.484 6.664 15.524C6.524 15.56 6.388 15.578 6.256 15.578C6.188 15.578 6.102 15.576 5.998 15.572C5.898 15.564 5.792 15.556 5.68 15.548C5.572 15.536 5.47 15.526 5.374 15.518C5.282 15.506 5.208 15.496 5.152 15.488V17H4.414ZM5.152 14.906H6.148C6.264 14.906 6.366 14.88 6.454 14.828C6.542 14.772 6.61 14.684 6.658 14.564C6.706 14.44 6.73 14.272 6.73 14.06C6.73 13.852 6.704 13.688 6.652 13.568C6.604 13.448 6.538 13.364 6.454 13.316C6.374 13.264 6.28 13.238 6.172 13.238H5.152V14.906ZM9.03541 17V12.572H10.8654C11.1534 12.572 11.3934 12.624 11.5854 12.728C11.7814 12.828 11.9374 12.976 12.0534 13.172C12.1694 13.364 12.2514 13.596 12.2994 13.868C12.3514 14.14 12.3774 14.446 12.3774 14.786C12.3774 15.274 12.3214 15.682 12.2094 16.01C12.0974 16.334 11.9294 16.58 11.7054 16.748C11.4814 16.916 11.2014 17 10.8654 17H9.03541ZM9.77341 16.334H10.7934C10.9974 16.334 11.1594 16.274 11.2794 16.154C11.4034 16.034 11.4934 15.858 11.5494 15.626C11.6094 15.394 11.6394 15.114 11.6394 14.786C11.6394 14.482 11.6214 14.23 11.5854 14.03C11.5494 13.83 11.4974 13.672 11.4294 13.556C11.3614 13.44 11.2734 13.358 11.1654 13.31C11.0614 13.262 10.9374 13.238 10.7934 13.238H9.77341V16.334ZM14.0201 17V13.538C14.0201 13.35 14.0481 13.194 14.1041 13.07C14.1601 12.942 14.2341 12.842 14.3261 12.77C14.4221 12.698 14.5261 12.648 14.6381 12.62C14.7541 12.588 14.8681 12.572 14.9801 12.572C15.1361 12.572 15.3201 12.574 15.5321 12.578C15.7441 12.578 15.9661 12.584 16.1981 12.596C16.4301 12.604 16.6541 12.618 16.8701 12.638V13.256H15.1781C15.0461 13.256 14.9421 13.294 14.8661 13.37C14.7941 13.442 14.7581 13.542 14.7581 13.67V14.564L16.6001 14.606V15.188L14.7581 15.23V17H14.0201Z" fill="white"/>
</svg>
