<svg width="17" height="15" viewBox="0 0 17 15" fill="none" xmlns="http://www.w3.org/2000/svg">
<path d="M7.824 7.232C7.824 7.024 7.85867 6.84267 7.928 6.688C7.99733 6.53333 8.08267 6.39467 8.184 6.272C8.29067 6.14933 8.40533 6.03733 8.528 5.936C8.65067 5.82933 8.76533 5.72533 8.872 5.624C8.97867 5.51733 9.064 5.40533 9.128 5.288C9.19733 5.17067 9.232 5.03467 9.232 4.88C9.232 4.624 9.13067 4.416 8.928 4.256C8.72533 4.096 8.44533 4.016 8.088 4.016C7.768 4.016 7.49067 4.06933 7.256 4.176C7.02133 4.28267 6.82133 4.44 6.656 4.648L6.072 4.232C6.296 3.94933 6.58133 3.73067 6.928 3.576C7.27467 3.416 7.68 3.336 8.144 3.336C8.528 3.336 8.86133 3.39467 9.144 3.512C9.42667 3.624 9.64533 3.78667 9.8 4C9.96 4.208 10.04 4.46133 10.04 4.76C10.04 4.984 10.0053 5.176 9.936 5.336C9.86667 5.496 9.77867 5.63733 9.672 5.76C9.56533 5.88267 9.45067 5.99733 9.328 6.104C9.21067 6.21067 9.09867 6.31733 8.992 6.424C8.88533 6.53067 8.79733 6.648 8.728 6.776C8.65867 6.904 8.624 7.056 8.624 7.232H7.824ZM8.232 9.048C8.08267 9.048 7.95733 8.99733 7.856 8.896C7.76 8.79467 7.712 8.67467 7.712 8.536C7.712 8.38667 7.76 8.264 7.856 8.168C7.95733 8.072 8.08267 8.024 8.232 8.024C8.38133 8.024 8.504 8.072 8.6 8.168C8.696 8.264 8.744 8.38667 8.744 8.536C8.744 8.67467 8.696 8.79467 8.6 8.896C8.504 8.99733 8.38133 9.048 8.232 9.048Z" fill="#4BADE9"/>
<path d="M13.5016 9.49392C13.5016 9.94323 13.3119 10.3741 12.9744 10.6918C12.6368 11.0096 12.179 11.188 11.7016 11.188C11.2242 11.188 10.7663 11.0096 10.4288 10.6918C10.0912 10.3741 9.90156 9.94323 9.90156 9.49392C9.90156 9.04461 10.0912 8.61371 10.4288 8.296C10.7663 7.97829 11.2242 7.7998 11.7016 7.7998C12.179 7.7998 12.6368 7.97829 12.9744 8.296C13.3119 8.61371 13.5016 9.04461 13.5016 9.49392ZM8.10156 14.3222C8.10156 14.9998 8.82156 14.9998 8.82156 14.9998H14.5816C14.5816 14.9998 15.3016 14.9998 15.3016 14.3222C15.3016 13.6445 14.5816 11.6116 11.7016 11.6116C8.82156 11.6116 8.10156 13.6445 8.10156 14.3222Z" fill="#4BADE9"/>
<path d="M2.025 0.599609C1.48794 0.599609 0.97287 0.805055 0.593109 1.17075C0.213348 1.53645 0 2.03244 0 2.54961L0 10.3496C0 10.8668 0.213348 11.3628 0.593109 11.7285C0.97287 12.0942 1.48794 12.2996 2.025 12.2996H7.33354C7.45706 11.9818 7.63223 11.6483 7.86611 11.3246H2.025C1.75647 11.3246 1.49893 11.2219 1.30905 11.039C1.11917 10.8562 1.0125 10.6082 1.0125 10.3496V2.54961C1.0125 2.29102 1.11917 2.04303 1.30905 1.86018C1.49893 1.67733 1.75647 1.57461 2.025 1.57461H14.175C14.4435 1.57461 14.7011 1.67733 14.8909 1.86018C15.0808 2.04303 15.1875 2.29102 15.1875 2.54961V10.1644C15.5449 10.3886 15.8517 10.648 16.1089 10.9278C16.1686 10.7455 16.2 10.5514 16.2 10.3496V2.54961C16.2 2.03244 15.9867 1.53645 15.6069 1.17075C15.2271 0.805055 14.7121 0.599609 14.175 0.599609H2.025Z" fill="#4BADE9"/>
</svg>
