<svg width="18" height="18" viewBox="0 0 18 18" fill="none" xmlns="http://www.w3.org/2000/svg">
<path d="M7.35973 8.42969L1.48655 14.3029C0.837816 14.9516 0.837816 16.0034 1.48655 16.6521C2.13528 17.3009 3.18708 17.3009 3.83582 16.6521L9.70898 10.779" stroke="#4BADE9" stroke-linecap="round" stroke-linejoin="round"/>
<path d="M13.2925 11.082L16.5138 14.3033C17.1626 14.952 17.1626 16.0039 16.5138 16.6526C15.8651 17.3013 14.8132 17.3013 14.1645 16.6526L9.00781 11.4959" stroke="#4BADE9" stroke-linecap="round" stroke-linejoin="round"/>
<path d="M4.60203 4.52391L2.84008 5.11123L1.07812 2.17464L2.25276 1L5.18935 2.76195L4.60203 4.52391ZM4.60203 4.52391L6.9528 6.87468" stroke="#4BADE9" stroke-linecap="round" stroke-linejoin="round"/>
<path d="M7.35945 8.43035C6.65859 6.64208 6.79562 4.29567 8.24046 2.85085C9.68527 1.40601 12.3516 1.08889 13.82 1.96987L11.2944 4.49543L11.0597 7.07944L13.6436 6.8447L16.1692 4.31913C17.0502 5.78743 16.7331 8.45386 15.2883 9.89868C13.8434 11.3435 11.497 11.4805 9.70878 10.7796" stroke="#4BADE9" stroke-linecap="round" stroke-linejoin="round"/>
</svg>
