<svg width="22" height="24" viewBox="0 0 22 24" fill="none" xmlns="http://www.w3.org/2000/svg">
<path d="M15.8889 0H6.11111C1.83333 0 0 2.4 0 6V18C0 21.6 1.83333 24 6.11111 24H15.8889C20.1667 24 22 21.6 22 18V6C22 2.4 20.1667 0 15.8889 0ZM6.11111 12.3H11C11.5011 12.3 11.9167 12.708 11.9167 13.2C11.9167 13.692 11.5011 14.1 11 14.1H6.11111C5.61 14.1 5.19444 13.692 5.19444 13.2C5.19444 12.708 5.61 12.3 6.11111 12.3ZM15.8889 18.9H6.11111C5.61 18.9 5.19444 18.492 5.19444 18C5.19444 17.508 5.61 17.1 6.11111 17.1H15.8889C16.39 17.1 16.8056 17.508 16.8056 18C16.8056 18.492 16.39 18.9 15.8889 18.9ZM18.9444 8.7H16.5C14.6422 8.7 13.1389 7.224 13.1389 5.4V3C13.1389 2.508 13.5544 2.1 14.0556 2.1C14.5567 2.1 14.9722 2.508 14.9722 3V5.4C14.9722 6.228 15.6567 6.9 16.5 6.9H18.9444C19.4456 6.9 19.8611 7.308 19.8611 7.8C19.8611 8.292 19.4456 8.7 18.9444 8.7Z" fill="#1268B3"/>
</svg>
