<svg width="13" height="23" viewBox="0 0 13 23" fill="none" xmlns="http://www.w3.org/2000/svg">
<path d="M8.66666 1.6H1.44444V14.4H11.5555V4.8H8.66666V1.6ZM0 0.7936C0 0.3552 0.322833 0 0.721499 0H9.38888L13 4V15.1944C13.0006 15.2995 12.9826 15.4036 12.9469 15.501C12.9113 15.5983 12.8586 15.6869 12.792 15.7617C12.7254 15.8365 12.6462 15.8961 12.5588 15.937C12.4714 15.9778 12.3777 15.9993 12.2828 16H0.717166C0.527495 15.9985 0.345957 15.9145 0.211768 15.766C0.0775795 15.6175 0.0015128 15.4165 0 15.2064V0.7936Z" fill="#4BADE9"/>
<path d="M6.02219 11.4034V5.77841H6.97674V11.4034H6.02219ZM3.68697 9.06818V8.11364H9.31197V9.06818H3.68697Z" fill="#4BADE9"/>
</svg>
