<svg width="18" height="18" viewBox="0 0 18 18" fill="none" xmlns="http://www.w3.org/2000/svg">
<path d="M13.5 1.5H9.75C9.75 1.9125 9.4125 2.25 9 2.25C8.5875 2.25 8.25 1.9125 8.25 1.5H4.5C3.675 1.5 3 2.175 3 3V15C3 15.825 3.675 16.5 4.5 16.5H13.5C14.325 16.5 15 15.825 15 15V3C15 2.175 14.325 1.5 13.5 1.5Z" fill="#1268B3"/>
<path d="M13.5 15.375H4.5C4.275 15.375 4.125 15.225 4.125 15V3C4.125 2.775 4.275 2.625 4.5 2.625H13.5C13.725 2.625 13.875 2.775 13.875 3V15C13.875 15.225 13.725 15.375 13.5 15.375Z" fill="white"/>
<path d="M9.75 1.5C9.75 1.9125 9.4125 2.25 9 2.25C8.5875 2.25 8.25 1.9125 8.25 1.5H5.625V3C5.625 3.4125 5.9625 3.75 6.375 3.75H11.625C12.0375 3.75 12.375 3.4125 12.375 3V1.5H9.75Z" fill="#1268B3"/>
<path d="M9 0C8.175 0 7.5 0.675 7.5 1.5C7.5 2.325 8.175 3 9 3C9.825 3 10.5 2.325 10.5 1.5C10.5 0.675 9 0 9 0ZM9 2.25C8.5875 2.25 8.25 1.9125 8.25 1.5C8.25 1.0875 8.5875 0.75 9 0.75C9.4125 0.75 9.75 1.0875 9.75 1.5C9.75 1.9125 9.4125 2.25 9 2.25Z" fill="#1268B3"/>
<path d="M7.875 7.5H12.375V8.25H7.875V7.5ZM5.625 7.125H7.125V8.625H5.625V7.125Z" fill="#CFD8DC"/>
<path d="M7.875 10.875H12.375V11.625H7.875V10.875ZM5.625 10.5H7.125V12H5.625V10.5Z" fill="#03A9F4"/>
</svg>